# xmcd CD database file
#
# Track frame offsets:
#	150
#	21000
#	35097
#	49872
#	65397
#	79497
#	93095
#	105552
#	119635
#	134992
#	155205
#	172150
#	183732
#
# Disc length: 2681 seconds
#
# Revision: 3
# Processed by: cddbd v1.5.2PL0 Copyright (c) Steve Scherf et al.
# Submitted via: CDex 1.70beta2
#
DISCID=c40a770d
DTITLE=The Manhattans - The Manhattans
DYEAR=1976
DGENRE=R&B
TTITLE0=Searching For Love (Felder-Farrow-Gray)
TTITLE1=We'll Have Forever To Love (E.Bivins)
TTITLE2=Take It Or Leave It (Weisman-Sands-Germinaro)
TTITLE3=Reasons (White-Bailey-Stepney)
TTITLE4=How Can Anything So Good Be So Bad For You (W.Lovett)
TTITLE5=Hurt (Crane-Jacons)
TTITLE6=Wonderful World Of Love (R.S.Riley Sr.)
TTITLE7=If You're Ever Gonna Leave Me (F.Johnson)
TTITLE8=La La La Wish Upon A Star (Randazzo-Pike-Joyce)
TTITLE9=Kiss And Say Goodbye (W.Lovett)
TTITLE10=(bonus track) Take It Or Leave It (Weisman-Sands-Germinaro) (Instrumental Version) 
TTITLE11=(bonus track) Excerpt From "An Interview Special With The Manhattans" 
TTITLE12=(bonus track)  Searching For Love (Alternate Mix) (
EXTD=YEAR: 1976
EXTT0=
EXTT1=
EXTT2=
EXTT3=
EXTT4=
EXTT5=
EXTT6=
EXTT7=
EXTT8=
EXTT9=
EXTT10=
EXTT11=
EXTT12=
PLAYORDER=
